# xmcd
#
# Track frame offsets:
#	182
#	20445
#	43112
#	58280
#	76137
#	96095
#	112550
#	129642
#	145567
#	164597
#
# Disc length: 2398 seconds
#
# Revision: 1
# Processed by: cddbd v1.5.2PL0 Copyright (c) Steve Scherf et al.
# Submitted via: audiograbber 1.83.01
#
DISCID=7b095c0a
DTITLE=Micheline Langlois - Douce melodie
DYEAR=1993
DGENRE=Québécois
TTITLE0=Cet amour ne s'oublie pas
TTITLE1=Douce melodie
TTITLE2=Laissons vivre nos reves
TTITLE3=Seule encore
TTITLE4=La vie avec toi
TTITLE5=Comment allez-vous
TTITLE6=L'heure est venue
TTITLE7=Sur ce vieux rocher blanc
TTITLE8=Haricanna
TTITLE9=Dans tous les coeurs
EXTD=
EXTT0=
EXTT1=
EXTT2=
EXTT3=
EXTT4=
EXTT5=
EXTT6=
EXTT7=
EXTT8=
EXTT9=
PLAYORDER=
